<svg width="420" height="156" viewBox="0 0 420 156" fill="none" xmlns="http://www.w3.org/2000/svg">
<rect width="420" height="156" fill="#F95700"/>
<path d="M332.97 104.141V97.901H355.851C358.889 97.901 360.408 96.2831 360.408 93.0474C360.408 89.6795 359.153 87.7645 356.644 87.3022L345.55 85.5193C337.163 84.0665 332.97 79.3119 332.97 71.2555C332.97 61.086 338.187 56.0012 348.62 56.0012H364.37L369.62 59.8643V66.1047H349.116C346.012 66.1047 344.46 67.7226 344.46 70.9584C344.46 74.1941 345.781 76.0431 348.422 76.5054L359.516 78.2883C367.837 79.6751 371.997 84.4627 371.997 92.6512C371.997 102.887 366.747 108.005 356.248 108.005H338.22L332.97 104.141Z" fill="white"/>
<path d="M309.363 47.7874V36H321.547V47.7874H309.363ZM309.661 108.005V56.0013H321.25V108.005H309.661Z" fill="white"/>
<path d="M258.913 104.141V97.901H281.795C284.832 97.901 286.351 96.2831 286.351 93.0474C286.351 89.6795 285.097 87.7645 282.587 87.3022L271.493 85.5193C263.107 84.0665 258.913 79.3119 258.913 71.2555C258.913 61.086 264.13 56.0012 274.564 56.0012H290.313L295.563 59.8643V66.1047H275.059C271.955 66.1047 270.404 67.7226 270.404 70.9584C270.404 74.1941 271.724 76.0431 274.366 76.5054L285.46 78.2883C293.78 79.6751 297.941 84.4627 297.941 92.6512C297.941 102.887 292.691 108.005 282.191 108.005H264.163L258.913 104.141Z" fill="white"/>
<path d="M208.463 104.141V97.901H231.345C234.382 97.901 235.901 96.2831 235.901 93.0474C235.901 89.6795 234.646 87.7645 232.137 87.3022L221.043 85.5193C212.657 84.0665 208.463 79.3119 208.463 71.2555C208.463 61.086 213.68 56.0012 224.114 56.0012H239.863L245.113 59.8643V66.1047H224.609C221.505 66.1047 219.953 67.7226 219.953 70.9584C219.953 74.1941 221.274 76.0431 223.916 76.5054L235.01 78.2883C243.33 79.6751 247.49 84.4627 247.49 92.6512C247.49 102.887 242.241 108.005 231.741 108.005H213.713L208.463 104.141Z" fill="white"/>
<path d="M170.197 108.005C159.763 108.005 154.546 102.854 154.546 92.5521C154.546 82.2505 159.763 77.0997 170.197 77.0997H185.451V70.6612C185.451 67.6235 183.932 66.1047 180.895 66.1047H159.895V59.8643L165.046 56.0012H181.489C191.857 56.0012 197.04 61.2181 197.04 71.6517V108.005H170.197ZM166.136 93.3445C166.136 96.3822 167.654 97.901 170.692 97.901H185.451V86.1136H170.692C167.654 86.1136 166.136 87.5994 166.136 90.571V93.3445Z" fill="white"/>
<path d="M99.0444 108.004V36.0046H110.634V56.0012H127.572C137.94 56.0012 143.123 61.218 143.123 71.6517V108.004H131.534V70.6611C131.534 67.6235 130.015 66.1047 126.978 66.1047H110.634V108.004H99.0444Z" fill="white"/>
<path d="M48 92.354V71.6517C48 61.2181 53.2168 56.0012 63.6505 56.0012H82.3717L87.6215 59.8643V66.1047H64.1458C61.1081 66.1047 59.5893 67.6235 59.5893 70.6612V93.3445C59.5893 96.3822 61.1081 97.901 64.1458 97.901H87.6215V104.141L82.3717 108.005H63.6505C53.2168 108.005 48 102.788 48 92.354Z" fill="white"/>
</svg>
