<svg width="24" height="24" viewBox="0 0 24 24" fill="none" xmlns="http://www.w3.org/2000/svg">
<path d="M4.8125 18.75C4.8125 18.2422 5.20312 17.8125 5.75 17.8125C6.25781 17.8125 6.6875 18.2422 6.6875 18.75C6.6875 19.2969 6.25781 19.6875 5.75 19.6875C5.20312 19.6875 4.8125 19.2969 4.8125 18.75ZM2 4.6875C2 3.51562 2.97656 2.5 4.1875 2.5H7.3125C8.48438 2.5 9.5 3.51562 9.5 4.6875V9.88281L13.0547 6.28906C13.9141 5.46875 15.2812 5.46875 16.1406 6.28906L18.3672 8.51562C19.1875 9.375 19.1875 10.7422 18.3672 11.6016L14.9297 15H19.8125C20.9844 15 22 16.0156 22 17.1875V20.3125C22 21.5234 20.9844 22.5 19.8125 22.5H5.75C3.64062 22.5 2 20.8203 2 18.75V4.6875ZM20.75 20.3125V17.1875C20.75 16.6797 20.3203 16.25 19.8125 16.25H13.6797L8.67969 21.25H19.8125C20.3203 21.25 20.75 20.8594 20.75 20.3125ZM17.4688 9.41406L15.2422 7.1875C14.8906 6.83594 14.3047 6.83594 13.9141 7.1875L9.5 11.6406V18.7109L17.4688 10.7422C17.8203 10.3516 17.8203 9.76562 17.4688 9.41406ZM5.75 21.25C7.11719 21.25 8.25 20.1562 8.25 18.75V13.75H3.25V18.75C3.25 20.1562 4.34375 21.25 5.75 21.25ZM3.25 12.5H8.25V8.75H3.25V12.5ZM3.25 7.5H8.25V4.6875C8.25 4.17969 7.82031 3.75 7.3125 3.75H4.1875C3.64062 3.75 3.25 4.17969 3.25 4.6875V7.5Z" fill="black"/>
</svg>
